<svg width="252" height="40" viewBox="0 0 252 40" fill="none" xmlns="http://www.w3.org/2000/svg">
<path d="M14.958 4.25C11.934 5.87 9.594 8.354 7.938 11.702C6.282 15.014 5.454 18.362 5.454 21.746C5.454 25.094 6.084 27.956 7.344 30.332C8.64 32.672 10.512 34.148 12.96 34.76H25.866C25.866 35.588 25.686 36.362 25.326 37.082C20.25 38.414 16.236 39.08 13.284 39.08C9.468 39.08 6.444 37.748 4.212 35.084C2.016 32.42 0.918 29.054 0.918 24.986C0.918 19.982 2.052 15.392 4.32 11.216C6.768 6.716 10.152 3.584 14.472 1.82C16.776 0.883998 19.044 0.415998 21.276 0.415998C23.544 0.415998 25.38 0.757998 26.784 1.442C28.224 2.09 29.16 2.846 29.592 3.71C28.836 5.078 28.224 6.86 27.756 9.056L27.486 10.136C26.586 10.46 25.614 10.622 24.57 10.622C24.858 9.83 25.002 8.912 25.002 7.868C25.002 6.104 24.534 4.898 23.598 4.25H14.958ZM41.0417 34.652L41.4737 34.76H46.6577C48.1697 34.184 49.5017 32.798 50.6537 30.602C51.8057 28.406 52.3817 26.156 52.3817 23.852C52.3817 21.008 51.8777 18.992 50.8697 17.804C49.9697 16.76 49.1777 16.148 48.4937 15.968L48.0617 15.86H42.8777C41.3657 16.436 40.0337 17.822 38.8817 20.018C37.7297 22.214 37.1537 24.608 37.1537 27.2C37.1537 29.756 37.6217 31.592 38.5577 32.708C39.5297 33.824 40.3577 34.472 41.0417 34.652ZM54.8657 29.576C53.8577 32.024 52.2557 34.13 50.0597 35.894C47.8997 37.658 45.3257 38.54 42.3377 38.54C36.1817 38.54 33.1037 35.192 33.1037 28.496C33.1037 25.976 33.6077 23.492 34.6157 21.044C35.6597 18.596 37.2617 16.49 39.4217 14.726C41.6177 12.962 44.2097 12.08 47.1977 12.08C53.3537 12.08 56.4317 15.428 56.4317 22.124C56.4317 24.644 55.9097 27.128 54.8657 29.576ZM60.8723 15.86C60.8723 15.032 61.0523 14.258 61.4123 13.538C63.4643 13.25 65.4623 12.674 67.4063 11.81C67.9103 11.81 68.3603 12.044 68.7563 12.512C69.1523 12.944 69.3503 13.52 69.3503 14.24L68.3243 21.962L68.8643 22.286C69.9803 19.73 71.6363 17.39 73.8323 15.266C76.0283 13.142 78.5123 12.08 81.2843 12.08C82.6163 12.08 83.6783 12.26 84.4703 12.62C85.2623 12.98 85.7303 13.34 85.8743 13.7L86.0363 14.24C85.2083 21.188 84.6503 28.028 84.3623 34.76H88.6823C88.6823 35.588 88.5023 36.362 88.1423 37.082C85.7303 37.37 83.5523 37.946 81.6083 38.81C81.0683 38.81 80.6003 38.612 80.2043 38.216C79.8443 37.82 79.6643 37.208 79.6643 36.38C80.4563 31.34 81.1403 24.5 81.7163 15.86H78.4223C76.9823 15.86 75.2723 16.994 73.2923 19.262C71.3123 21.494 69.7103 23.96 68.4863 26.66C68.1263 31.124 67.7123 34.904 67.2443 38C65.4803 38.54 63.7883 38.81 62.1683 38.81C62.7443 36.398 63.2483 33.572 63.6803 30.332C64.1123 27.092 64.4903 22.268 64.8143 15.86H60.8723ZM107.272 12.62C107.272 13.484 107.092 14.564 106.732 15.86H100.522C99.8383 22.304 99.4063 28.604 99.2263 34.76H105.706C105.706 35.588 105.526 36.362 105.166 37.082C102.034 37.37 99.4963 37.946 97.5523 38.81C95.5363 38.81 94.5283 38 94.5283 36.38C95.6803 27.596 96.4003 20.756 96.6883 15.86H93.8803C93.8803 15.032 94.0603 14.258 94.4203 13.538C94.4923 13.502 94.5823 13.466 94.6903 13.43C94.8343 13.358 95.0863 13.178 95.4463 12.89C95.8063 12.602 96.1303 12.26 96.4183 11.864C97.2103 10.748 97.7143 9.254 97.9303 7.382C99.0823 6.734 100.288 6.41 101.548 6.41C101.368 8.462 101.134 10.622 100.846 12.89L107.272 12.62ZM136.541 34.76C136.541 35.588 136.361 36.362 136.001 37.082C133.589 37.37 131.411 37.946 129.467 38.81C128.927 38.81 128.459 38.612 128.063 38.216C127.703 37.82 127.523 37.208 127.523 36.38L128.549 28.658L128.009 28.334C126.677 31.574 125.327 34.094 123.959 35.894C122.591 37.658 120.791 38.54 118.559 38.54C116.327 38.54 114.455 37.73 112.943 36.11C111.431 34.454 110.675 32.222 110.675 29.414C110.675 24.77 112.061 20.72 114.833 17.264C117.605 13.808 121.043 12.08 125.147 12.08C126.479 12.08 127.991 12.602 129.683 13.646C129.755 12.998 129.827 12.476 129.899 12.08C131.699 11.54 133.409 11.27 135.029 11.27C134.345 14.042 133.769 17.03 133.301 20.234C132.869 23.438 132.437 28.28 132.005 34.76H136.541ZM114.779 27.902C114.779 29.486 115.139 30.926 115.859 32.222C116.579 33.482 117.389 34.328 118.289 34.76H120.881C122.969 34.364 125.507 30.584 128.495 23.42C128.639 21.908 128.927 19.388 129.359 15.86H120.719C119.315 16.112 117.965 17.516 116.669 20.072C115.409 22.592 114.779 25.202 114.779 27.902ZM158.189 34.76C158.189 35.588 158.009 36.362 157.649 37.082C153.833 38.054 151.097 38.54 149.441 38.54C146.345 38.54 144.005 37.748 142.421 36.164C140.873 34.544 140.099 32.204 140.099 29.144C140.099 26.048 140.621 23.276 141.665 20.828C142.745 18.38 144.383 16.31 146.579 14.618C148.775 12.926 151.295 12.08 154.139 12.08C155.507 12.08 156.749 12.332 157.865 12.836C159.017 13.34 159.845 13.808 160.349 14.24C159.593 15.572 158.981 17.192 158.513 19.1L158.243 20.018C157.523 20.342 156.641 20.504 155.597 20.504C155.921 19.064 156.083 17.984 156.083 17.264C156.083 16.544 155.813 16.076 155.273 15.86H149.603C148.127 16.436 146.831 17.804 145.715 19.964C144.635 22.088 144.095 24.356 144.095 26.768C144.095 29.576 144.617 31.592 145.661 32.816C146.561 33.86 147.389 34.472 148.145 34.652L148.577 34.76H158.189ZM178.305 12.62C178.305 13.484 178.125 14.564 177.765 15.86H171.555C170.871 22.304 170.439 28.604 170.259 34.76H176.739C176.739 35.588 176.559 36.362 176.199 37.082C173.067 37.37 170.529 37.946 168.585 38.81C166.569 38.81 165.561 38 165.561 36.38C166.713 27.596 167.433 20.756 167.721 15.86H164.913C164.913 15.032 165.093 14.258 165.453 13.538C165.525 13.502 165.615 13.466 165.723 13.43C165.867 13.358 166.119 13.178 166.479 12.89C166.839 12.602 167.163 12.26 167.451 11.864C168.243 10.748 168.747 9.254 168.963 7.382C170.115 6.734 171.321 6.41 172.581 6.41C172.401 8.462 172.167 10.622 171.879 12.89L178.305 12.62ZM215.792 3.548C215.792 2.72 216.008 1.946 216.44 1.226C219.032 1.478 220.994 1.604 222.326 1.604L227.564 1.226C227.564 2.054 227.384 2.828 227.024 3.548C225.62 3.692 224.342 4.358 223.19 5.546C222.362 16.094 221.678 22.952 221.138 26.12C220.598 29.252 220.04 31.502 219.464 32.87C218.924 34.202 218.096 35.354 216.98 36.326C215.864 37.262 214.46 37.91 212.768 38.27C211.112 38.63 208.952 38.81 206.288 38.81C202.832 38.81 200.168 37.946 198.296 36.218C196.424 34.49 195.488 32.564 195.488 30.44C195.488 28.28 195.704 24.266 196.136 18.398C196.604 12.494 196.928 7.688 197.108 3.98L192.788 3.224C192.788 2.396 192.968 1.622 193.328 0.901998C196.676 1.154 198.89 1.28 199.97 1.28C201.554 1.28 203.318 1.172 205.262 0.955997L206.018 0.901998C206.018 1.73 205.838 2.504 205.478 3.224C203.822 3.512 202.472 4.052 201.428 4.844C200.492 12.332 200.024 20.288 200.024 28.712C200.024 30.476 200.726 31.934 202.13 33.086C203.57 34.202 205.19 34.76 206.99 34.76H214.28C215.972 33.716 217.124 31.754 217.736 28.874C218.348 25.994 218.852 22.574 219.248 18.614C219.644 14.618 219.878 11.288 219.95 8.624L220.112 4.628L215.792 3.548ZM245.877 31.412C245.877 30.728 245.697 30.188 245.337 29.792C244.977 29.36 244.689 29.054 244.473 28.874C244.293 28.658 243.969 28.406 243.501 28.118C243.033 27.794 242.709 27.578 242.529 27.47C241.629 26.93 240.747 26.444 239.883 26.012C239.055 25.544 238.407 25.166 237.939 24.878C237.507 24.59 236.949 24.158 236.265 23.582C235.041 22.538 234.429 21.188 234.429 19.532C234.429 17.12 235.329 15.284 237.129 14.024C238.965 12.728 241.197 12.08 243.825 12.08C246.453 12.08 248.847 12.8 251.007 14.24C250.179 15.788 249.549 17.444 249.117 19.208L248.901 20.018C248.181 20.342 247.299 20.504 246.255 20.504C246.579 19.028 246.741 18.092 246.741 17.696C246.741 16.544 246.345 15.842 245.553 15.59H240.315C238.587 15.842 237.723 16.85 237.723 18.614C237.723 19.226 238.029 19.856 238.641 20.504C239.253 21.116 239.865 21.62 240.477 22.016C241.089 22.376 241.953 22.844 243.069 23.42C244.221 23.996 245.175 24.536 245.931 25.04C246.687 25.508 247.443 26.192 248.199 27.092C248.991 27.956 249.387 28.838 249.387 29.738C249.387 32.546 248.469 34.724 246.633 36.272C244.797 37.784 242.313 38.54 239.181 38.54C237.273 38.54 235.635 38.252 234.267 37.676C232.935 37.064 232.071 36.47 231.675 35.894L231.081 35.03C231.873 33.662 232.449 32.186 232.809 30.602L232.971 29.9C233.691 29.576 234.573 29.414 235.617 29.414C235.293 30.602 235.131 31.628 235.131 32.492C235.131 33.752 236.157 34.598 238.209 35.03H243.825C245.193 34.238 245.877 33.032 245.877 31.412Z" fill="white"/>
</svg>
