<svg width="493" height="98" viewBox="0 0 493 98" fill="none" xmlns="http://www.w3.org/2000/svg">
<rect x="5" y="3.00439" width="488" height="90" fill="#DB3A3A"/>
<line x1="490.5" y1="93.0988" x2="490.5" y2="3.00436" stroke="#9B2020" stroke-width="5"/>
<line x1="490.5" y1="93.0988" x2="490.5" y2="3.00436" stroke="#9B2020" stroke-width="5"/>
<line x1="2.5" y1="93.0944" x2="2.5" y2="2.99996" stroke="#9B2020" stroke-width="5"/>
<line x1="2.5" y1="93.0944" x2="2.5" y2="2.99996" stroke="#9B2020" stroke-width="5"/>
<line x1="5" y1="94.5044" x2="493" y2="94.5044" stroke="#9B2020" stroke-width="5"/>
<line x1="5" y1="2.50439" x2="493" y2="2.50439" stroke="#9B2020" stroke-width="5"/>
<path d="M103.052 50.986C103.052 45.946 104.168 41.374 106.4 37.27C108.848 32.77 112.214 29.656 116.498 27.928C118.838 26.956 121.376 26.47 124.112 26.47C127.928 26.47 130.934 27.802 133.13 30.466C135.362 33.094 136.478 36.442 136.478 40.51C136.478 46.774 134.768 52.336 131.348 57.196C129.692 59.572 127.478 61.48 124.706 62.92C121.97 64.36 118.784 65.08 115.148 65.08C111.512 65.08 108.578 63.748 106.346 61.084C104.15 58.42 103.052 55.054 103.052 50.986ZM117.092 30.25C114.068 31.87 111.728 34.354 110.072 37.702C108.416 41.014 107.588 44.362 107.588 47.746C107.588 51.094 108.218 53.956 109.478 56.332C110.774 58.672 112.646 60.148 115.094 60.76H122.6C125.624 59.14 127.928 56.728 129.512 53.524C131.132 50.32 131.942 47.044 131.942 43.696C131.942 40.348 131.312 37.468 130.052 35.056C128.828 32.644 127.028 31.042 124.652 30.25H117.092ZM168.42 60.76C168.42 61.588 168.24 62.362 167.88 63.082C165.468 63.37 163.29 63.946 161.346 64.81C160.806 64.81 160.338 64.612 159.942 64.216C159.582 63.82 159.402 63.208 159.402 62.38L160.428 54.658L159.888 54.334C158.772 56.89 157.116 59.23 154.92 61.354C152.724 63.478 150.24 64.54 147.468 64.54C146.136 64.54 145.074 64.36 144.282 64C143.49 63.64 143.04 63.28 142.932 62.92L142.716 62.38C143.508 55.288 144.048 48.448 144.336 41.86H140.61C140.61 41.032 140.79 40.258 141.15 39.538C143.202 39.25 145.2 38.674 147.144 37.81C147.648 37.81 148.098 38.044 148.494 38.512C148.89 38.944 149.088 39.52 149.088 40.24C148.296 45.28 147.612 52.12 147.036 60.76H150.33C151.806 60.76 153.552 59.59 155.568 57.25C157.584 54.91 159.168 52.39 160.32 49.69C160.824 45.082 161.31 41.212 161.778 38.08C163.578 37.54 165.288 37.27 166.908 37.27C166.224 40.042 165.648 43.03 165.18 46.234C164.748 49.438 164.316 54.28 163.884 60.76H168.42ZM172.871 41.86C172.871 41.032 173.051 40.258 173.411 39.538C175.463 39.25 177.461 38.674 179.405 37.81C179.909 37.81 180.359 38.044 180.755 38.512C181.151 38.944 181.349 39.52 181.349 40.24L180.431 46.72L180.971 47.044C181.871 44.992 183.257 42.994 185.129 41.05C187.037 39.07 188.873 38.08 190.637 38.08C191.321 38.08 191.933 38.224 192.473 38.512C193.049 38.8 193.445 39.088 193.661 39.376L193.985 39.808C193.085 41.392 192.401 43.156 191.933 45.1L191.663 46.018C190.943 46.342 190.061 46.504 189.017 46.504C189.341 45.028 189.503 44.092 189.503 43.696C189.503 42.688 189.161 42.076 188.477 41.86C187.685 41.86 186.443 42.886 184.751 44.938C183.059 46.954 181.673 49.132 180.593 51.472C180.125 56.872 179.675 61.048 179.243 64C177.479 64.54 175.787 64.81 174.167 64.81C174.743 62.398 175.247 59.572 175.679 56.332C176.111 53.092 176.489 48.268 176.813 41.86H172.871ZM236.165 62.326C236.165 63.154 235.985 63.928 235.625 64.648C232.601 64.396 229.919 64.27 227.579 64.27C225.671 59.23 223.367 53.992 220.667 48.556C219.731 48.736 218.579 48.826 217.211 48.826H215.105L214.403 61.246L218.831 62.056C218.831 62.884 218.651 63.658 218.291 64.378C214.583 64.126 212.063 64 210.731 64L205.601 64.378C205.601 63.55 205.781 62.776 206.141 62.056C207.581 61.624 208.805 60.976 209.813 60.112C210.749 52.192 211.559 42.22 212.243 30.196L208.247 29.224C208.247 28.396 208.427 27.622 208.787 26.902C211.667 27.154 213.773 27.28 215.105 27.28L222.449 26.74C225.581 26.74 228.083 27.46 229.955 28.9C231.863 30.304 232.817 32.5 232.817 35.488C232.817 38.44 232.115 40.906 230.711 42.886C229.307 44.83 227.399 46.324 224.987 47.368C227.291 52.732 229.613 57.484 231.953 61.624L236.165 62.326ZM228.605 37.108C228.605 35.56 228.191 34.12 227.363 32.788C226.571 31.42 225.437 30.574 223.961 30.25H216.833C216.113 36.442 215.591 41.716 215.267 46.072H220.775C223.223 45.604 225.131 44.56 226.499 42.94C227.903 41.284 228.605 39.34 228.605 37.108ZM263.011 60.76C263.011 61.588 262.831 62.362 262.471 63.082C260.059 63.37 257.881 63.946 255.937 64.81C255.397 64.81 254.929 64.612 254.533 64.216C254.173 63.82 253.993 63.208 253.993 62.38L255.019 54.658L254.479 54.334C253.147 57.574 251.797 60.094 250.429 61.894C249.061 63.658 247.261 64.54 245.029 64.54C242.797 64.54 240.925 63.73 239.413 62.11C237.901 60.454 237.145 58.222 237.145 55.414C237.145 50.77 238.531 46.72 241.303 43.264C244.075 39.808 247.513 38.08 251.617 38.08C252.949 38.08 254.461 38.602 256.153 39.646C256.225 38.998 256.297 38.476 256.369 38.08C258.169 37.54 259.879 37.27 261.499 37.27C260.815 40.042 260.239 43.03 259.771 46.234C259.339 49.438 258.907 54.28 258.475 60.76H263.011ZM241.249 53.902C241.249 55.486 241.609 56.926 242.329 58.222C243.049 59.482 243.859 60.328 244.759 60.76H247.351C249.439 60.364 251.977 56.584 254.965 49.42C255.109 47.908 255.397 45.388 255.829 41.86H247.189C245.785 42.112 244.435 43.516 243.139 46.072C241.879 48.592 241.249 51.202 241.249 53.902ZM303.236 38.08C304.568 38.08 305.63 38.26 306.422 38.62C307.214 38.98 307.664 39.34 307.772 39.7L307.988 40.24C307.16 47.188 306.602 54.028 306.314 60.76H310.634C310.634 61.588 310.454 62.362 310.094 63.082C307.682 63.37 305.504 63.946 303.56 64.81C303.02 64.81 302.552 64.612 302.156 64.216C301.796 63.82 301.616 63.208 301.616 62.38C302.408 57.34 303.092 50.5 303.668 41.86H300.374C299.114 41.86 297.548 43.12 295.676 45.64C293.804 48.16 292.184 50.878 290.816 53.794C290.42 59.086 290.114 62.488 289.898 64C288.134 64.54 286.442 64.81 284.822 64.81C285.398 62.398 285.758 60.634 285.902 59.518C286.55 56.386 287.162 50.5 287.738 41.86H284.444C283.04 41.86 281.51 42.958 279.854 45.154C278.234 47.314 276.812 49.816 275.588 52.66C275.228 57.124 274.814 60.904 274.346 64C272.582 64.54 270.89 64.81 269.27 64.81C269.846 62.398 270.35 59.572 270.782 56.332C271.214 53.092 271.592 48.268 271.916 41.86H267.974C267.974 41.032 268.154 40.258 268.514 39.538C270.566 39.25 272.564 38.674 274.508 37.81C275.012 37.81 275.462 38.044 275.858 38.512C276.254 38.944 276.452 39.52 276.452 40.24L275.426 47.962L275.966 48.286C278.954 41.482 282.734 38.08 287.306 38.08C288.638 38.08 289.7 38.26 290.492 38.62C291.284 38.98 291.752 39.34 291.896 39.7L292.058 40.24C292.022 41.212 291.788 43.786 291.356 47.962L291.896 48.286C294.884 41.482 298.664 38.08 303.236 38.08ZM334.252 60.76C334.252 61.588 334.072 62.362 333.712 63.082C329.896 64.054 327.16 64.54 325.504 64.54C319.312 64.54 316.216 61.174 316.216 54.442C316.216 51.958 316.756 49.492 317.836 47.044C318.916 44.56 320.554 42.454 322.75 40.726C324.982 38.962 327.502 38.08 330.31 38.08C332.074 38.08 333.37 38.53 334.198 39.43C335.026 40.33 335.44 41.428 335.44 42.724C335.44 49.204 330.364 52.552 320.212 52.768C320.212 57.7 321.688 60.364 324.64 60.76H334.252ZM331.66 44.074C331.66 42.886 331.156 42.148 330.148 41.86H325.18C323.992 42.328 322.966 43.372 322.102 44.992C321.238 46.576 320.662 48.376 320.374 50.392C324.514 50.248 327.43 49.654 329.122 48.61C330.814 47.53 331.66 46.018 331.66 44.074ZM340.747 41.86C340.747 41.032 340.927 40.258 341.287 39.538C343.339 39.25 345.337 38.674 347.281 37.81C347.785 37.81 348.235 38.044 348.631 38.512C349.027 38.944 349.225 39.52 349.225 40.24L348.199 47.962L348.739 48.286C349.855 45.73 351.511 43.39 353.707 41.266C355.903 39.142 358.387 38.08 361.159 38.08C362.491 38.08 363.553 38.26 364.345 38.62C365.137 38.98 365.605 39.34 365.749 39.7L365.911 40.24C365.083 47.188 364.525 54.028 364.237 60.76H368.557C368.557 61.588 368.377 62.362 368.017 63.082C365.605 63.37 363.427 63.946 361.483 64.81C360.943 64.81 360.475 64.612 360.079 64.216C359.719 63.82 359.539 63.208 359.539 62.38C360.331 57.34 361.015 50.5 361.591 41.86H358.297C356.857 41.86 355.147 42.994 353.167 45.262C351.187 47.494 349.585 49.96 348.361 52.66C348.001 57.124 347.587 60.904 347.119 64C345.355 64.54 343.663 64.81 342.043 64.81C342.619 62.398 343.123 59.572 343.555 56.332C343.987 53.092 344.365 48.268 344.689 41.86H340.747ZM387.957 57.412C387.957 56.728 387.777 56.188 387.417 55.792C387.057 55.36 386.769 55.054 386.553 54.874C386.373 54.658 386.049 54.406 385.581 54.118C385.113 53.794 384.789 53.578 384.609 53.47C383.709 52.93 382.827 52.444 381.963 52.012C381.135 51.544 380.487 51.166 380.019 50.878C379.587 50.59 379.029 50.158 378.345 49.582C377.121 48.538 376.509 47.188 376.509 45.532C376.509 43.12 377.409 41.284 379.209 40.024C381.045 38.728 383.277 38.08 385.905 38.08C388.533 38.08 390.927 38.8 393.087 40.24C392.259 41.788 391.629 43.444 391.197 45.208L390.981 46.018C390.261 46.342 389.379 46.504 388.335 46.504C388.659 45.028 388.821 44.092 388.821 43.696C388.821 42.544 388.425 41.842 387.633 41.59H382.395C380.667 41.842 379.803 42.85 379.803 44.614C379.803 45.226 380.109 45.856 380.721 46.504C381.333 47.116 381.945 47.62 382.557 48.016C383.169 48.376 384.033 48.844 385.149 49.42C386.301 49.996 387.255 50.536 388.011 51.04C388.767 51.508 389.523 52.192 390.279 53.092C391.071 53.956 391.467 54.838 391.467 55.738C391.467 58.546 390.549 60.724 388.713 62.272C386.877 63.784 384.393 64.54 381.261 64.54C379.353 64.54 377.715 64.252 376.347 63.676C375.015 63.064 374.151 62.47 373.755 61.894L373.161 61.03C373.953 59.662 374.529 58.186 374.889 56.602L375.051 55.9C375.771 55.576 376.653 55.414 377.697 55.414C377.373 56.602 377.211 57.628 377.211 58.492C377.211 59.752 378.237 60.598 380.289 61.03H385.905C387.273 60.238 387.957 59.032 387.957 57.412Z" fill="white"/>
</svg>
