<svg width="493" height="97" viewBox="0 0 493 97" fill="none" xmlns="http://www.w3.org/2000/svg">
<rect x="5" y="3" width="488" height="90" fill="#DB3A3A"/>
<line x1="490.5" y1="93.0944" x2="490.5" y2="2.99996" stroke="#9B2020" stroke-width="5"/>
<line x1="490.5" y1="93.0944" x2="490.5" y2="2.99996" stroke="#9B2020" stroke-width="5"/>
<line x1="2.5" y1="93.09" x2="2.5" y2="2.99557" stroke="#9B2020" stroke-width="5"/>
<line x1="2.5" y1="93.09" x2="2.5" y2="2.99557" stroke="#9B2020" stroke-width="5"/>
<line x1="5" y1="94.5" x2="493" y2="94.5" stroke="#9B2020" stroke-width="5"/>
<line x1="5" y1="2.5" x2="493" y2="2.5" stroke="#9B2020" stroke-width="5"/>
<path d="M44.468 26.74C50.876 26.74 54.08 29.26 54.08 34.3C54.08 38.728 52.118 41.914 48.194 43.858C50.534 44.398 52.298 45.37 53.486 46.774C54.674 48.142 55.268 49.762 55.268 51.634C55.268 56.026 53.828 59.284 50.948 61.408C48.068 63.496 44.306 64.54 39.662 64.54C38.474 64.54 37.07 64.45 35.45 64.27C33.866 64.09 32.786 64 32.21 64L27.08 64.378C27.08 63.55 27.26 62.776 27.62 62.056C29.06 61.624 30.284 60.976 31.292 60.112C32.228 52.192 33.038 42.22 33.722 30.196L29.672 29.224C29.672 28.396 29.852 27.622 30.212 26.902C32.516 27.154 34.334 27.28 35.666 27.28C36.998 27.28 38.636 27.19 40.58 27.01C42.524 26.83 43.82 26.74 44.468 26.74ZM44.252 45.856H36.8C36.656 47.548 36.368 52.516 35.936 60.76H46.412C49.544 59.572 51.11 57.07 51.11 53.254C51.11 51.022 50.39 49.24 48.95 47.908C47.546 46.54 45.98 45.856 44.252 45.856ZM50.138 35.866C50.138 34.534 49.832 33.328 49.22 32.248C48.608 31.168 47.744 30.502 46.628 30.25H38.312C37.736 34.894 37.286 39.268 36.962 43.372H44.792C48.356 41.788 50.138 39.286 50.138 35.866ZM78.0564 60.76C78.0564 61.588 77.8764 62.362 77.5164 63.082C73.7004 64.054 70.9644 64.54 69.3084 64.54C63.1164 64.54 60.0204 61.174 60.0204 54.442C60.0204 51.958 60.5604 49.492 61.6404 47.044C62.7204 44.56 64.3584 42.454 66.5544 40.726C68.7864 38.962 71.3064 38.08 74.1144 38.08C75.8784 38.08 77.1744 38.53 78.0024 39.43C78.8304 40.33 79.2444 41.428 79.2444 42.724C79.2444 49.204 74.1684 52.552 64.0164 52.768C64.0164 57.7 65.4924 60.364 68.4444 60.76H78.0564ZM75.4644 44.074C75.4644 42.886 74.9604 42.148 73.9524 41.86H68.9844C67.7964 42.328 66.7704 43.372 65.9064 44.992C65.0424 46.576 64.4664 48.376 64.1784 50.392C68.3184 50.248 71.2344 49.654 72.9264 48.61C74.6184 47.53 75.4644 46.018 75.4644 44.074ZM98.592 57.412C98.592 56.728 98.412 56.188 98.052 55.792C97.692 55.36 97.404 55.054 97.188 54.874C97.008 54.658 96.684 54.406 96.216 54.118C95.748 53.794 95.424 53.578 95.244 53.47C94.344 52.93 93.462 52.444 92.598 52.012C91.77 51.544 91.122 51.166 90.654 50.878C90.222 50.59 89.664 50.158 88.98 49.582C87.756 48.538 87.144 47.188 87.144 45.532C87.144 43.12 88.044 41.284 89.844 40.024C91.68 38.728 93.912 38.08 96.54 38.08C99.168 38.08 101.562 38.8 103.722 40.24C102.894 41.788 102.264 43.444 101.832 45.208L101.616 46.018C100.896 46.342 100.014 46.504 98.97 46.504C99.294 45.028 99.456 44.092 99.456 43.696C99.456 42.544 99.06 41.842 98.268 41.59H93.03C91.302 41.842 90.438 42.85 90.438 44.614C90.438 45.226 90.744 45.856 91.356 46.504C91.968 47.116 92.58 47.62 93.192 48.016C93.804 48.376 94.668 48.844 95.784 49.42C96.936 49.996 97.89 50.536 98.646 51.04C99.402 51.508 100.158 52.192 100.914 53.092C101.706 53.956 102.102 54.838 102.102 55.738C102.102 58.546 101.184 60.724 99.348 62.272C97.512 63.784 95.028 64.54 91.896 64.54C89.988 64.54 88.35 64.252 86.982 63.676C85.65 63.064 84.786 62.47 84.39 61.894L83.796 61.03C84.588 59.662 85.164 58.186 85.524 56.602L85.686 55.9C86.406 55.576 87.288 55.414 88.332 55.414C88.008 56.602 87.846 57.628 87.846 58.492C87.846 59.752 88.872 60.598 90.924 61.03H96.54C97.908 60.238 98.592 59.032 98.592 57.412ZM122.304 38.62C122.304 39.484 122.124 40.564 121.764 41.86H115.554C114.87 48.304 114.438 54.604 114.258 60.76H120.738C120.738 61.588 120.558 62.362 120.198 63.082C117.066 63.37 114.528 63.946 112.584 64.81C110.568 64.81 109.56 64 109.56 62.38C110.712 53.596 111.432 46.756 111.72 41.86H108.912C108.912 41.032 109.092 40.258 109.452 39.538C109.524 39.502 109.614 39.466 109.722 39.43C109.866 39.358 110.118 39.178 110.478 38.89C110.838 38.602 111.162 38.26 111.45 37.864C112.242 36.748 112.746 35.254 112.962 33.382C114.114 32.734 115.32 32.41 116.58 32.41C116.4 34.462 116.166 36.622 115.878 38.89L122.304 38.62ZM148.288 30.25C145.984 31.114 144.832 32.806 144.832 35.326C144.832 37.81 146.866 40.222 150.934 42.562C154.354 44.506 156.82 46.27 158.332 47.854C159.88 49.438 160.654 51.13 160.654 52.93C160.654 56.926 159.376 59.95 156.82 62.002C154.3 64.054 150.754 65.08 146.182 65.08C140.602 65.08 137.272 63.82 136.192 61.3C136.948 59.932 137.56 58.15 138.028 55.954L138.298 54.874C139.198 54.55 140.17 54.388 141.214 54.388C140.926 55.18 140.782 56.098 140.782 57.142C140.782 58.906 141.25 60.112 142.186 60.76H152.986C155.11 59.428 156.172 57.484 156.172 54.928C156.172 53.272 155.524 51.742 154.228 50.338C152.932 48.898 150.916 47.386 148.18 45.802C145.48 44.218 143.554 42.85 142.402 41.698C141.25 40.546 140.674 39.088 140.674 37.324C140.674 33.688 141.898 30.97 144.346 29.17C146.794 27.37 150.016 26.47 154.012 26.47C155.884 26.47 157.54 26.794 158.98 27.442C160.456 28.054 161.338 28.81 161.626 29.71C160.87 31.078 160.24 32.86 159.736 35.056L159.52 36.136C158.62 36.46 157.648 36.622 156.604 36.622C156.892 35.83 157.036 34.912 157.036 33.868C157.036 32.104 156.568 30.898 155.632 30.25H148.288ZM184.316 60.76C184.316 61.588 184.136 62.362 183.776 63.082C179.96 64.054 177.224 64.54 175.568 64.54C169.376 64.54 166.28 61.174 166.28 54.442C166.28 51.958 166.82 49.492 167.9 47.044C168.98 44.56 170.618 42.454 172.814 40.726C175.046 38.962 177.566 38.08 180.374 38.08C182.138 38.08 183.434 38.53 184.262 39.43C185.09 40.33 185.504 41.428 185.504 42.724C185.504 49.204 180.428 52.552 170.276 52.768C170.276 57.7 171.752 60.364 174.704 60.76H184.316ZM181.724 44.074C181.724 42.886 181.22 42.148 180.212 41.86H175.244C174.056 42.328 173.03 43.372 172.166 44.992C171.302 46.576 170.726 48.376 170.438 50.392C174.578 50.248 177.494 49.654 179.186 48.61C180.878 47.53 181.724 46.018 181.724 44.074ZM190.326 25.39C190.326 24.562 190.506 23.788 190.866 23.068C192.918 22.78 194.916 22.204 196.86 21.34C197.364 21.34 197.814 21.574 198.21 22.042C198.606 22.474 198.804 23.05 198.804 23.77C198.12 29.53 197.04 41.86 195.564 60.76H199.776C199.776 61.588 199.596 62.362 199.236 63.082C196.824 63.37 194.646 63.946 192.702 64.81C192.162 64.81 191.694 64.612 191.298 64.216C190.938 63.82 190.758 63.208 190.758 62.38C192.666 46.36 193.908 34.03 194.484 25.39H190.326ZM204.828 25.39C204.828 24.562 205.008 23.788 205.368 23.068C207.42 22.78 209.418 22.204 211.362 21.34C211.866 21.34 212.316 21.574 212.712 22.042C213.108 22.474 213.306 23.05 213.306 23.77C212.622 29.53 211.542 41.86 210.066 60.76H214.278C214.278 61.588 214.098 62.362 213.738 63.082C211.326 63.37 209.148 63.946 207.204 64.81C206.664 64.81 206.196 64.612 205.8 64.216C205.44 63.82 205.26 63.208 205.26 62.38C207.168 46.36 208.41 34.03 208.986 25.39H204.828ZM218.628 41.86C218.628 41.032 218.808 40.258 219.168 39.538C221.22 39.25 223.218 38.674 225.162 37.81C225.666 37.81 226.116 38.044 226.512 38.512C226.908 38.944 227.106 39.52 227.106 40.24C226.278 47.26 225.72 54.1 225.432 60.76H229.752C229.752 61.588 229.572 62.362 229.212 63.082C226.8 63.37 224.622 63.946 222.678 64.81C222.138 64.81 221.67 64.612 221.274 64.216C220.914 63.82 220.734 63.208 220.734 62.38C221.526 57.34 222.21 50.5 222.786 41.86H218.628ZM222.894 29.116C223.074 28.576 223.506 28.144 224.19 27.82C224.874 27.46 225.576 27.28 226.296 27.28C227.016 27.28 227.574 27.442 227.97 27.766C228.402 28.09 228.618 28.45 228.618 28.846L228.348 30.79C227.952 31.87 226.8 32.41 224.892 32.41C224.172 32.41 223.614 32.248 223.218 31.924C222.858 31.6 222.678 31.222 222.678 30.79L222.894 29.116ZM235.32 41.86C235.32 41.032 235.5 40.258 235.86 39.538C237.912 39.25 239.91 38.674 241.854 37.81C242.358 37.81 242.808 38.044 243.204 38.512C243.6 38.944 243.798 39.52 243.798 40.24L242.772 47.962L243.312 48.286C244.428 45.73 246.084 43.39 248.28 41.266C250.476 39.142 252.96 38.08 255.732 38.08C257.064 38.08 258.126 38.26 258.918 38.62C259.71 38.98 260.178 39.34 260.322 39.7L260.484 40.24C259.656 47.188 259.098 54.028 258.81 60.76H263.13C263.13 61.588 262.95 62.362 262.59 63.082C260.178 63.37 258 63.946 256.056 64.81C255.516 64.81 255.048 64.612 254.652 64.216C254.292 63.82 254.112 63.208 254.112 62.38C254.904 57.34 255.588 50.5 256.164 41.86H252.87C251.43 41.86 249.72 42.994 247.74 45.262C245.76 47.494 244.158 49.96 242.934 52.66C242.574 57.124 242.16 60.904 241.692 64C239.928 64.54 238.236 64.81 236.616 64.81C237.192 62.398 237.696 59.572 238.128 56.332C238.56 53.092 238.938 48.268 239.262 41.86H235.32ZM266.276 75.718C266.276 74.854 266.438 74.098 266.762 73.45H279.074C280.694 72.658 282.116 70.12 283.34 65.836C284.132 63.136 284.708 59.41 285.068 54.658L284.582 54.388C283.25 57.628 281.9 60.13 280.532 61.894C279.164 63.658 277.364 64.54 275.132 64.54C272.9 64.54 271.028 63.73 269.516 62.11C268.004 60.454 267.248 58.222 267.248 55.414C267.248 50.77 268.634 46.72 271.406 43.264C274.178 39.808 277.616 38.08 281.72 38.08C283.088 38.08 284.582 38.584 286.202 39.592L286.418 38.08C288.218 37.54 289.928 37.27 291.548 37.27C290.864 40.042 290.414 42.202 290.198 43.75C289.982 45.262 289.73 47.332 289.442 49.96C289.19 52.588 288.974 54.766 288.794 56.494C288.614 58.186 288.362 60.094 288.038 62.218C287.714 64.306 287.354 65.998 286.958 67.294C286.562 68.626 286.004 69.976 285.284 71.344C284.564 72.748 283.736 73.828 282.8 74.584C280.64 76.348 277.814 77.23 274.322 77.23C272.846 77.23 270.65 76.852 267.734 76.096L266.276 75.718ZM271.352 53.902C271.352 55.486 271.712 56.926 272.432 58.222C273.152 59.482 273.962 60.328 274.862 60.76H277.454C279.578 60.364 282.098 56.638 285.014 49.582C285.158 47.89 285.446 45.316 285.878 41.86H277.292C275.888 42.112 274.538 43.516 273.242 46.072C271.982 48.592 271.352 51.202 271.352 53.902ZM336.507 62.326C336.507 63.154 336.327 63.928 335.967 64.648C332.943 64.396 330.261 64.27 327.921 64.27C326.013 59.23 323.709 53.992 321.009 48.556C320.073 48.736 318.921 48.826 317.553 48.826H315.447L314.745 61.246L319.173 62.056C319.173 62.884 318.993 63.658 318.633 64.378C314.925 64.126 312.405 64 311.073 64L305.943 64.378C305.943 63.55 306.123 62.776 306.483 62.056C307.923 61.624 309.147 60.976 310.155 60.112C311.091 52.192 311.901 42.22 312.585 30.196L308.589 29.224C308.589 28.396 308.769 27.622 309.129 26.902C312.009 27.154 314.115 27.28 315.447 27.28L322.791 26.74C325.923 26.74 328.425 27.46 330.297 28.9C332.205 30.304 333.159 32.5 333.159 35.488C333.159 38.44 332.457 40.906 331.053 42.886C329.649 44.83 327.741 46.324 325.329 47.368C327.633 52.732 329.955 57.484 332.295 61.624L336.507 62.326ZM328.947 37.108C328.947 35.56 328.533 34.12 327.705 32.788C326.913 31.42 325.779 30.574 324.303 30.25H317.175C316.455 36.442 315.933 41.716 315.609 46.072H321.117C323.565 45.604 325.473 44.56 326.841 42.94C328.245 41.284 328.947 39.34 328.947 37.108ZM363.353 60.76C363.353 61.588 363.173 62.362 362.813 63.082C360.401 63.37 358.223 63.946 356.279 64.81C355.739 64.81 355.271 64.612 354.875 64.216C354.515 63.82 354.335 63.208 354.335 62.38L355.361 54.658L354.821 54.334C353.489 57.574 352.139 60.094 350.771 61.894C349.403 63.658 347.603 64.54 345.371 64.54C343.139 64.54 341.267 63.73 339.755 62.11C338.243 60.454 337.487 58.222 337.487 55.414C337.487 50.77 338.873 46.72 341.645 43.264C344.417 39.808 347.855 38.08 351.959 38.08C353.291 38.08 354.803 38.602 356.495 39.646C356.567 38.998 356.639 38.476 356.711 38.08C358.511 37.54 360.221 37.27 361.841 37.27C361.157 40.042 360.581 43.03 360.113 46.234C359.681 49.438 359.249 54.28 358.817 60.76H363.353ZM341.591 53.902C341.591 55.486 341.951 56.926 342.671 58.222C343.391 59.482 344.201 60.328 345.101 60.76H347.693C349.781 60.364 352.319 56.584 355.307 49.42C355.451 47.908 355.739 45.388 356.171 41.86H347.531C346.127 42.112 344.777 43.516 343.481 46.072C342.221 48.592 341.591 51.202 341.591 53.902ZM403.578 38.08C404.91 38.08 405.972 38.26 406.764 38.62C407.556 38.98 408.006 39.34 408.114 39.7L408.33 40.24C407.502 47.188 406.944 54.028 406.656 60.76H410.976C410.976 61.588 410.796 62.362 410.436 63.082C408.024 63.37 405.846 63.946 403.902 64.81C403.362 64.81 402.894 64.612 402.498 64.216C402.138 63.82 401.958 63.208 401.958 62.38C402.75 57.34 403.434 50.5 404.01 41.86H400.716C399.456 41.86 397.89 43.12 396.018 45.64C394.146 48.16 392.526 50.878 391.158 53.794C390.762 59.086 390.456 62.488 390.24 64C388.476 64.54 386.784 64.81 385.164 64.81C385.74 62.398 386.1 60.634 386.244 59.518C386.892 56.386 387.504 50.5 388.08 41.86H384.786C383.382 41.86 381.852 42.958 380.196 45.154C378.576 47.314 377.154 49.816 375.93 52.66C375.57 57.124 375.156 60.904 374.688 64C372.924 64.54 371.232 64.81 369.612 64.81C370.188 62.398 370.692 59.572 371.124 56.332C371.556 53.092 371.934 48.268 372.258 41.86H368.316C368.316 41.032 368.496 40.258 368.856 39.538C370.908 39.25 372.906 38.674 374.85 37.81C375.354 37.81 375.804 38.044 376.2 38.512C376.596 38.944 376.794 39.52 376.794 40.24L375.768 47.962L376.308 48.286C379.296 41.482 383.076 38.08 387.648 38.08C388.98 38.08 390.042 38.26 390.834 38.62C391.626 38.98 392.094 39.34 392.238 39.7L392.4 40.24C392.364 41.212 392.13 43.786 391.698 47.962L392.238 48.286C395.226 41.482 399.006 38.08 403.578 38.08ZM434.594 60.76C434.594 61.588 434.414 62.362 434.054 63.082C430.238 64.054 427.502 64.54 425.846 64.54C419.654 64.54 416.558 61.174 416.558 54.442C416.558 51.958 417.098 49.492 418.178 47.044C419.258 44.56 420.896 42.454 423.092 40.726C425.324 38.962 427.844 38.08 430.652 38.08C432.416 38.08 433.712 38.53 434.54 39.43C435.368 40.33 435.782 41.428 435.782 42.724C435.782 49.204 430.706 52.552 420.554 52.768C420.554 57.7 422.03 60.364 424.982 60.76H434.594ZM432.002 44.074C432.002 42.886 431.498 42.148 430.49 41.86H425.522C424.334 42.328 423.308 43.372 422.444 44.992C421.58 46.576 421.004 48.376 420.716 50.392C424.856 50.248 427.772 49.654 429.464 48.61C431.156 47.53 432.002 46.018 432.002 44.074ZM441.089 41.86C441.089 41.032 441.269 40.258 441.629 39.538C443.681 39.25 445.679 38.674 447.623 37.81C448.127 37.81 448.577 38.044 448.973 38.512C449.369 38.944 449.567 39.52 449.567 40.24L448.541 47.962L449.081 48.286C450.197 45.73 451.853 43.39 454.049 41.266C456.245 39.142 458.729 38.08 461.501 38.08C462.833 38.08 463.895 38.26 464.687 38.62C465.479 38.98 465.947 39.34 466.091 39.7L466.253 40.24C465.425 47.188 464.867 54.028 464.579 60.76H468.899C468.899 61.588 468.719 62.362 468.359 63.082C465.947 63.37 463.769 63.946 461.825 64.81C461.285 64.81 460.817 64.612 460.421 64.216C460.061 63.82 459.881 63.208 459.881 62.38C460.673 57.34 461.357 50.5 461.933 41.86H458.639C457.199 41.86 455.489 42.994 453.509 45.262C451.529 47.494 449.927 49.96 448.703 52.66C448.343 57.124 447.929 60.904 447.461 64C445.697 64.54 444.005 64.81 442.385 64.81C442.961 62.398 443.465 59.572 443.897 56.332C444.329 53.092 444.707 48.268 445.031 41.86H441.089Z" fill="white"/>
</svg>
