<svg width="493" height="98" viewBox="0 0 493 98" fill="none" xmlns="http://www.w3.org/2000/svg">
<rect x="5" y="3.00439" width="488" height="90" fill="#DB3A3A"/>
<line x1="490.5" y1="93.0988" x2="490.5" y2="3.00436" stroke="#9B2020" stroke-width="5"/>
<line x1="490.5" y1="93.0988" x2="490.5" y2="3.00436" stroke="#9B2020" stroke-width="5"/>
<line x1="2.5" y1="93.0944" x2="2.5" y2="2.99996" stroke="#9B2020" stroke-width="5"/>
<line x1="2.5" y1="93.0944" x2="2.5" y2="2.99996" stroke="#9B2020" stroke-width="5"/>
<line x1="5" y1="94.5044" x2="493" y2="94.5044" stroke="#9B2020" stroke-width="5"/>
<line x1="5" y1="2.50439" x2="493" y2="2.50439" stroke="#9B2020" stroke-width="5"/>
<path d="M171.828 65.326C171.828 66.154 171.648 66.928 171.288 67.648C167.58 67.396 165.06 67.27 163.728 67.27L158.058 67.648C158.058 66.82 158.238 66.046 158.598 65.326C159.642 65.074 160.632 64.714 161.568 64.246C160.452 58.522 159.804 55.264 159.624 54.472C155.412 54.364 152.622 54.31 151.254 54.31C149.922 54.31 148.356 54.382 146.556 54.526L141.804 64.246L146.448 65.326C146.448 66.154 146.268 66.928 145.908 67.648C143.028 67.396 140.922 67.27 139.59 67.27L134.46 67.648C134.46 66.82 134.64 66.046 135 65.326C136.152 65.002 137.214 64.498 138.186 63.814C144.918 51.934 150.3 41.53 154.332 32.602L153.9 30.874C155.448 30.118 157.104 29.74 158.868 29.74C162.252 45.04 165.078 56.632 167.346 64.516L171.828 65.326ZM147.906 51.718C149.598 51.826 151.326 51.88 153.09 51.88C154.89 51.88 156.87 51.844 159.03 51.772C158.598 49.72 157.41 44.788 155.466 36.976C153.558 40.468 151.038 45.382 147.906 51.718ZM184.889 67.54C183.557 67.54 182.045 67.288 180.353 66.784C179.921 71.14 179.633 74.722 179.489 77.53L183.755 78.448C183.755 79.276 183.575 80.05 183.215 80.77C180.335 80.41 178.409 80.23 177.437 80.23C175.745 80.23 173.837 80.356 171.713 80.608L170.687 80.77C170.687 79.942 170.867 79.168 171.227 78.448C172.559 78.124 173.747 77.638 174.791 76.99C175.691 71.482 176.339 66.604 176.735 62.356C177.131 58.072 177.545 52.24 177.977 44.86H174.035C174.035 44.032 174.215 43.258 174.575 42.538C176.627 42.25 178.625 41.674 180.569 40.81C181.073 40.81 181.523 41.044 181.919 41.512C182.315 41.944 182.513 42.52 182.513 43.24L181.487 50.962L182.027 51.286C183.359 48.046 184.709 45.544 186.077 43.78C187.445 41.98 189.245 41.08 191.477 41.08C193.709 41.08 195.581 41.908 197.093 43.564C198.605 45.184 199.361 47.398 199.361 50.206C199.361 54.85 197.975 58.9 195.203 62.356C192.431 65.812 188.993 67.54 184.889 67.54ZM195.257 51.718C195.257 50.134 194.897 48.712 194.177 47.452C193.457 46.156 192.647 45.292 191.747 44.86H189.155C186.923 45.292 184.349 49.162 181.433 56.47L180.623 63.76H189.317C190.721 63.508 192.053 62.122 193.313 59.602C194.609 57.046 195.257 54.418 195.257 51.718ZM215.422 67.54C214.09 67.54 212.578 67.288 210.886 66.784C210.454 71.14 210.166 74.722 210.022 77.53L214.288 78.448C214.288 79.276 214.108 80.05 213.748 80.77C210.868 80.41 208.942 80.23 207.97 80.23C206.278 80.23 204.37 80.356 202.246 80.608L201.22 80.77C201.22 79.942 201.4 79.168 201.76 78.448C203.092 78.124 204.28 77.638 205.324 76.99C206.224 71.482 206.872 66.604 207.268 62.356C207.664 58.072 208.078 52.24 208.51 44.86H204.568C204.568 44.032 204.748 43.258 205.108 42.538C207.16 42.25 209.158 41.674 211.102 40.81C211.606 40.81 212.056 41.044 212.452 41.512C212.848 41.944 213.046 42.52 213.046 43.24L212.02 50.962L212.56 51.286C213.892 48.046 215.242 45.544 216.61 43.78C217.978 41.98 219.778 41.08 222.01 41.08C224.242 41.08 226.114 41.908 227.626 43.564C229.138 45.184 229.894 47.398 229.894 50.206C229.894 54.85 228.508 58.9 225.736 62.356C222.964 65.812 219.526 67.54 215.422 67.54ZM225.79 51.718C225.79 50.134 225.43 48.712 224.71 47.452C223.99 46.156 223.18 45.292 222.28 44.86H219.688C217.456 45.292 214.882 49.162 211.966 56.47L211.156 63.76H219.85C221.254 63.508 222.586 62.122 223.846 59.602C225.142 57.046 225.79 54.418 225.79 51.718ZM252.922 63.76C252.922 64.588 252.742 65.362 252.382 66.082C248.566 67.054 245.83 67.54 244.174 67.54C237.982 67.54 234.886 64.174 234.886 57.442C234.886 54.958 235.426 52.492 236.506 50.044C237.586 47.56 239.224 45.454 241.42 43.726C243.652 41.962 246.172 41.08 248.98 41.08C250.744 41.08 252.04 41.53 252.868 42.43C253.696 43.33 254.11 44.428 254.11 45.724C254.11 52.204 249.034 55.552 238.882 55.768C238.882 60.7 240.358 63.364 243.31 63.76H252.922ZM250.33 47.074C250.33 45.886 249.826 45.148 248.818 44.86H243.85C242.662 45.328 241.636 46.372 240.772 47.992C239.908 49.576 239.332 51.376 239.044 53.392C243.184 53.248 246.1 52.654 247.792 51.61C249.484 50.53 250.33 49.018 250.33 47.074ZM272.647 41.62C272.647 42.484 272.467 43.564 272.107 44.86H265.897C265.213 51.304 264.781 57.604 264.601 63.76H271.081C271.081 64.588 270.901 65.362 270.541 66.082C267.409 66.37 264.871 66.946 262.927 67.81C260.911 67.81 259.903 67 259.903 65.38C261.055 56.596 261.775 49.756 262.063 44.86H259.255C259.255 44.032 259.435 43.258 259.795 42.538C259.867 42.502 259.957 42.466 260.065 42.43C260.209 42.358 260.461 42.178 260.821 41.89C261.181 41.602 261.505 41.26 261.793 40.864C262.585 39.748 263.089 38.254 263.305 36.382C264.457 35.734 265.663 35.41 266.923 35.41C266.743 37.462 266.509 39.622 266.221 41.89L272.647 41.62ZM276.212 44.86C276.212 44.032 276.392 43.258 276.752 42.538C278.804 42.25 280.802 41.674 282.746 40.81C283.25 40.81 283.7 41.044 284.096 41.512C284.492 41.944 284.69 42.52 284.69 43.24C283.862 50.26 283.304 57.1 283.016 63.76H287.336C287.336 64.588 287.156 65.362 286.796 66.082C284.384 66.37 282.206 66.946 280.262 67.81C279.722 67.81 279.254 67.612 278.858 67.216C278.498 66.82 278.318 66.208 278.318 65.38C279.11 60.34 279.794 53.5 280.37 44.86H276.212ZM280.478 32.116C280.658 31.576 281.09 31.144 281.774 30.82C282.458 30.46 283.16 30.28 283.88 30.28C284.6 30.28 285.158 30.442 285.554 30.766C285.986 31.09 286.202 31.45 286.202 31.846L285.932 33.79C285.536 34.87 284.384 35.41 282.476 35.41C281.756 35.41 281.198 35.248 280.802 34.924C280.442 34.6 280.262 34.222 280.262 33.79L280.478 32.116ZM296.846 48.964C295.838 48.712 295.028 48.262 294.416 47.614C295.244 44.734 295.658 42.664 295.658 41.404C295.766 41.188 296.756 41.08 298.628 41.08C300.536 41.08 304.37 41.584 310.13 42.592L311.372 41.08C312.812 41.08 313.928 41.404 314.72 42.052V42.592L297.548 63.76H308.942C309.554 62.824 309.986 61.69 310.238 60.358L310.4 59.656C311.408 59.908 312.218 60.358 312.83 61.006C312.002 63.886 311.588 65.956 311.588 67.216C311.264 67.432 309.608 67.54 306.62 67.54C303.668 67.54 299.978 67.108 295.55 66.244L294.524 67.54C293.048 67.54 291.914 67.108 291.122 66.244V65.704L308.24 44.86H298.304C297.692 45.796 297.242 46.93 296.954 48.262L296.846 48.964ZM336.084 63.76C336.084 64.588 335.904 65.362 335.544 66.082C331.728 67.054 328.992 67.54 327.336 67.54C321.144 67.54 318.048 64.174 318.048 57.442C318.048 54.958 318.588 52.492 319.668 50.044C320.748 47.56 322.386 45.454 324.582 43.726C326.814 41.962 329.334 41.08 332.142 41.08C333.906 41.08 335.202 41.53 336.03 42.43C336.858 43.33 337.272 44.428 337.272 45.724C337.272 52.204 332.196 55.552 322.044 55.768C322.044 60.7 323.52 63.364 326.472 63.76H336.084ZM333.492 47.074C333.492 45.886 332.988 45.148 331.98 44.86H327.012C325.824 45.328 324.798 46.372 323.934 47.992C323.07 49.576 322.494 51.376 322.206 53.392C326.346 53.248 329.262 52.654 330.954 51.61C332.646 50.53 333.492 49.018 333.492 47.074ZM341.607 44.86C341.607 44.032 341.787 43.258 342.147 42.538C344.199 42.25 346.197 41.674 348.141 40.81C348.645 40.81 349.095 41.044 349.491 41.512C349.887 41.944 350.085 42.52 350.085 43.24L349.167 49.72L349.707 50.044C350.607 47.992 351.993 45.994 353.865 44.05C355.773 42.07 357.609 41.08 359.373 41.08C360.057 41.08 360.669 41.224 361.209 41.512C361.785 41.8 362.181 42.088 362.397 42.376L362.721 42.808C361.821 44.392 361.137 46.156 360.669 48.1L360.399 49.018C359.679 49.342 358.797 49.504 357.753 49.504C358.077 48.028 358.239 47.092 358.239 46.696C358.239 45.688 357.897 45.076 357.213 44.86C356.421 44.86 355.179 45.886 353.487 47.938C351.795 49.954 350.409 52.132 349.329 54.472C348.861 59.872 348.411 64.048 347.979 67C346.215 67.54 344.523 67.81 342.903 67.81C343.479 65.398 343.983 62.572 344.415 59.332C344.847 56.092 345.225 51.268 345.549 44.86H341.607Z" fill="white"/>
</svg>
